# This file uses centimeters as units for non-parametric coordinates.

mtllib Room.mtl
g default
v -13.000000 -5.000000 29.000000
v 23.000000 -5.000000 29.000000
v -13.000000 31.000000 29.000000
v -13.000000 31.000000 -7.000000
v 23.000000 31.000000 -7.000000
v -13.000000 -5.000000 -7.000000
v 23.000000 -5.000000 -7.000000
vt 0.375000 0.000000
vt 0.375000 0.250000
vt 0.375000 0.500000
vt 0.625000 0.500000
vt 0.375000 0.750000
vt 0.625000 0.750000
vt 0.375000 1.000000
vt 0.625000 1.000000
vt 0.125000 0.000000
vt 0.125000 0.250000
vn 0.000000 0.000000 1.000000
vn 0.000000 0.000000 1.000000
vn 0.000000 0.000000 1.000000
vn 0.000000 0.000000 1.000000
vn 0.000000 1.000000 0.000000
vn 0.000000 1.000000 0.000000
vn 0.000000 1.000000 0.000000
vn 0.000000 1.000000 0.000000
vn 1.000000 0.000000 0.000000
vn 1.000000 0.000000 0.000000
vn 1.000000 0.000000 0.000000
vn 1.000000 0.000000 0.000000
s off
g pCube1
usemtl lambert2SG
f 4/3/1 6/5/2 7/6/3 5/4/4
f 6/5/5 1/7/6 2/8/7 7/6/8
f 6/9/9 4/10/10 3/2/11 1/1/12
