# This file uses centimeters as units for non-parametric coordinates.

mtllib Table.mtl
g default
v -13.028724 5.000000 6.500000
v 13.028731 5.000000 6.500000
v -13.028724 6.000000 6.500000
v 13.028731 6.000000 6.500000
v -13.028724 6.000000 -6.500000
v 13.028724 6.000000 -6.500000
v -13.028724 5.000000 -6.500000
v 13.028731 5.000000 -6.500000
v -13.028731 -5.000000 -5.500000
v -11.024256 -5.000000 -5.500000
v -13.028731 5.000000 -5.500000
v -11.024256 5.000000 -5.500000
v -13.028731 5.000000 -6.500000
v -11.024256 5.000000 -6.500000
v -13.028731 -5.000000 -6.500000
v -11.024256 -5.000000 -6.500000
v -13.028724 -5.000000 6.500000
v -11.024256 -5.000000 6.500000
v -13.028724 5.000000 6.500000
v -11.024256 5.000000 6.500000
v -13.028724 5.000000 5.500000
v -11.024256 5.000000 5.500000
v -13.028724 -5.000000 5.500000
v -11.024256 -5.000000 5.500000
v 11.024256 -5.000000 -5.500000
v 13.028731 -5.000000 -5.500000
v 11.024256 5.000000 -5.500000
v 13.028731 5.000000 -5.500000
v 11.024256 5.000000 -6.500000
v 13.028731 5.000000 -6.500000
v 11.024256 -5.000000 -6.500000
v 13.028731 -5.000000 -6.500000
v 11.024256 -5.000000 6.500000
v 13.028731 -5.000000 6.500000
v 11.024256 5.000000 6.500000
v 13.028731 5.000000 6.500000
v 11.024256 5.000000 5.500000
v 13.028731 5.000000 5.500000
v 11.024256 -5.000000 5.500000
v 13.028731 -5.000000 5.500000
vt 0.001636 0.666015
vt 0.001633 0.334016
vt 0.027173 0.666015
vt 0.027170 0.334017
vt 0.359163 0.666006
vt 0.359166 0.334017
vt 0.384699 0.666006
vt 0.384704 0.334018
vt 0.716679 0.666014
vt 0.716690 0.334030
vt 0.001641 0.002047
vt 0.027178 0.002047
vt 0.001635 0.998008
vt 0.027173 0.998008
vt 0.800118 0.016149
vt 0.825494 0.015857
vt 0.828404 0.269637
vt 0.800118 0.270414
vt 0.847408 0.308343
vt 0.792037 0.317809
vt 0.951723 0.887250
vt 0.893653 0.897594
vt 0.962930 0.946065
vt 0.903885 0.956754
vt 0.850873 0.015571
vt 0.853784 0.269340
vt 0.774689 0.016150
vt 0.774689 0.270414
vt 0.798310 0.016191
vt 0.823686 0.015899
vt 0.826596 0.269679
vt 0.798310 0.270455
vt 0.845601 0.308385
vt 0.790232 0.317851
vt 0.949917 0.887292
vt 0.891848 0.897636
vt 0.961122 0.946107
vt 0.902077 0.956796
vt 0.849067 0.015613
vt 0.851977 0.269382
vt 0.772884 0.016192
vt 0.772883 0.270455
vt 0.798880 0.016170
vt 0.824255 0.015878
vt 0.827165 0.269658
vt 0.798880 0.270434
vt 0.846170 0.308364
vt 0.790799 0.317830
vt 0.950484 0.887271
vt 0.892416 0.897615
vt 0.961691 0.946086
vt 0.902647 0.956775
vt 0.849635 0.015592
vt 0.852545 0.269361
vt 0.773451 0.016171
vt 0.773451 0.270434
vt 0.800532 0.016170
vt 0.825909 0.015878
vt 0.828819 0.269658
vt 0.800532 0.270434
vt 0.847824 0.308364
vt 0.792454 0.317830
vt 0.952138 0.887271
vt 0.894070 0.897615
vt 0.963345 0.946086
vt 0.904299 0.956775
vt 0.851290 0.015592
vt 0.854200 0.269361
vt 0.775105 0.016171
vt 0.775104 0.270434
vn 0.000000 0.000000 1.000000
vn 0.000000 0.000000 1.000000
vn 0.000000 0.000000 1.000000
vn 0.000000 0.000000 1.000000
vn 0.000000 1.000000 -0.000000
vn 0.000000 1.000000 -0.000000
vn 0.000000 1.000000 -0.000000
vn 0.000000 1.000000 -0.000000
vn 0.000000 0.000000 -1.000000
vn 0.000000 0.000000 -1.000000
vn 0.000000 0.000000 -1.000000
vn 0.000000 0.000000 -1.000000
vn 0.000000 -1.000000 0.000000
vn 0.000000 -1.000000 0.000000
vn 0.000000 -1.000000 0.000000
vn 0.000000 -1.000000 0.000000
vn 1.000000 0.000003 -0.000000
vn 1.000000 0.000003 -0.000000
vn 1.000000 0.000003 -0.000000
vn 1.000000 0.000003 -0.000000
vn -1.000000 0.000000 0.000000
vn -1.000000 0.000000 0.000000
vn -1.000000 0.000000 0.000000
vn -1.000000 0.000000 0.000000
vn 0.000000 0.000000 1.000000
vn 0.000000 0.000000 1.000000
vn 0.000000 0.000000 1.000000
vn 0.000000 0.000000 1.000000
vn 0.000000 1.000000 0.000000
vn 0.000000 1.000000 0.000000
vn 0.000000 1.000000 0.000000
vn 0.000000 1.000000 0.000000
vn 0.000000 0.000000 -1.000000
vn 0.000000 0.000000 -1.000000
vn 0.000000 0.000000 -1.000000
vn 0.000000 0.000000 -1.000000
vn 0.000000 -1.000000 0.000000
vn 0.000000 -1.000000 0.000000
vn 0.000000 -1.000000 0.000000
vn 0.000000 -1.000000 0.000000
vn 1.000000 0.000000 0.000000
vn 1.000000 0.000000 0.000000
vn 1.000000 0.000000 0.000000
vn 1.000000 0.000000 0.000000
vn -1.000000 0.000000 0.000000
vn -1.000000 0.000000 0.000000
vn -1.000000 0.000000 0.000000
vn -1.000000 0.000000 0.000000
vn 0.000000 0.000000 1.000000
vn 0.000000 0.000000 1.000000
vn 0.000000 0.000000 1.000000
vn 0.000000 0.000000 1.000000
vn 0.000000 1.000000 0.000000
vn 0.000000 1.000000 0.000000
vn 0.000000 1.000000 0.000000
vn 0.000000 1.000000 0.000000
vn 0.000000 0.000000 -1.000000
vn 0.000000 0.000000 -1.000000
vn 0.000000 0.000000 -1.000000
vn 0.000000 0.000000 -1.000000
vn 0.000000 -1.000000 0.000000
vn 0.000000 -1.000000 0.000000
vn 0.000000 -1.000000 0.000000
vn 0.000000 -1.000000 0.000000
vn 1.000000 0.000000 0.000000
vn 1.000000 0.000000 0.000000
vn 1.000000 0.000000 0.000000
vn 1.000000 0.000000 0.000000
vn -1.000000 0.000000 0.000000
vn -1.000000 0.000000 0.000000
vn -1.000000 0.000000 0.000000
vn -1.000000 0.000000 0.000000
vn 0.000000 0.000000 1.000000
vn 0.000000 0.000000 1.000000
vn 0.000000 0.000000 1.000000
vn 0.000000 0.000000 1.000000
vn 0.000000 1.000000 0.000000
vn 0.000000 1.000000 0.000000
vn 0.000000 1.000000 0.000000
vn 0.000000 1.000000 0.000000
vn 0.000000 0.000000 -1.000000
vn 0.000000 0.000000 -1.000000
vn 0.000000 0.000000 -1.000000
vn 0.000000 0.000000 -1.000000
vn 0.000000 -1.000000 0.000000
vn 0.000000 -1.000000 0.000000
vn 0.000000 -1.000000 0.000000
vn 0.000000 -1.000000 0.000000
vn 1.000000 0.000000 0.000000
vn 1.000000 0.000000 0.000000
vn 1.000000 0.000000 0.000000
vn 1.000000 0.000000 0.000000
vn -1.000000 0.000000 0.000000
vn -1.000000 0.000000 0.000000
vn -1.000000 0.000000 0.000000
vn -1.000000 0.000000 0.000000
vn 0.000000 0.000000 1.000000
vn 0.000000 0.000000 1.000000
vn 0.000000 0.000000 1.000000
vn 0.000000 0.000000 1.000000
vn 0.000000 1.000000 0.000000
vn 0.000000 1.000000 0.000000
vn 0.000000 1.000000 0.000000
vn 0.000000 1.000000 0.000000
vn 0.000000 0.000000 -1.000000
vn 0.000000 0.000000 -1.000000
vn 0.000000 0.000000 -1.000000
vn 0.000000 0.000000 -1.000000
vn 0.000000 -1.000000 0.000000
vn 0.000000 -1.000000 0.000000
vn 0.000000 -1.000000 0.000000
vn 0.000000 -1.000000 0.000000
vn 1.000000 0.000000 0.000000
vn 1.000000 0.000000 0.000000
vn 1.000000 0.000000 0.000000
vn 1.000000 0.000000 0.000000
vn -1.000000 0.000000 0.000000
vn -1.000000 0.000000 0.000000
vn -1.000000 0.000000 0.000000
vn -1.000000 0.000000 0.000000
s off
g pCube6
usemtl lambert2SG
f 1/1/1 2/2/2 4/4/3 3/3/4
f 3/3/5 4/4/6 6/6/7 5/5/8
f 5/5/9 6/6/10 8/8/11 7/7/12
f 7/7/13 8/8/14 2/10/15 1/9/16
f 2/2/17 8/11/18 6/12/19 4/4/20
f 7/13/21 1/1/22 3/3/23 5/14/24
f 9/15/25 10/16/26 12/17/27 11/18/28
f 11/18/29 12/17/30 14/19/31 13/20/32
f 13/20/33 14/19/34 16/21/35 15/22/36
f 15/22/37 16/21/38 10/23/39 9/24/40
f 10/16/41 16/25/42 14/26/43 12/17/44
f 15/27/45 9/15/46 11/18/47 13/28/48
f 17/29/49 18/30/50 20/31/51 19/32/52
f 19/32/53 20/31/54 22/33/55 21/34/56
f 21/34/57 22/33/58 24/35/59 23/36/60
f 23/36/61 24/35/62 18/37/63 17/38/64
f 18/30/65 24/39/66 22/40/67 20/31/68
f 23/41/69 17/29/70 19/32/71 21/42/72
f 25/43/73 26/44/74 28/45/75 27/46/76
f 27/46/77 28/45/78 30/47/79 29/48/80
f 29/48/81 30/47/82 32/49/83 31/50/84
f 31/50/85 32/49/86 26/51/87 25/52/88
f 26/44/89 32/53/90 30/54/91 28/45/92
f 31/55/93 25/43/94 27/46/95 29/56/96
f 33/57/97 34/58/98 36/59/99 35/60/100
f 35/60/101 36/59/102 38/61/103 37/62/104
f 37/62/105 38/61/106 40/63/107 39/64/108
f 39/64/109 40/63/110 34/65/111 33/66/112
f 34/58/113 40/67/114 38/68/115 36/59/116
f 39/69/117 33/57/118 35/60/119 37/70/120
